<mxfile host="app.diagrams.net" modified="2024-04-10T11:27:01.167Z" agent="Mozilla/5.0 (Windows NT 10.0; Win64; x64) AppleWebKit/537.36 (KHTML, like Gecko) Chrome/123.0.0.0 Safari/537.36" etag="kPpE84YgvKs36gMCUUhV" version="24.2.3" type="github">
  <diagram id="C5RBs43oDa-KdzZeNtuy" name="Page-1">
    <mxGraphModel dx="2645" dy="921" grid="1" gridSize="10" guides="1" tooltips="1" connect="1" arrows="1" fold="1" page="1" pageScale="1" pageWidth="827" pageHeight="1169" math="0" shadow="0">
      <root>
        <mxCell id="WIyWlLk6GJQsqaUBKTNV-0" />
        <mxCell id="WIyWlLk6GJQsqaUBKTNV-1" parent="WIyWlLk6GJQsqaUBKTNV-0" />
        <mxCell id="MlD3XML23Wwkm-uaM5Pc-0" value="" style="rounded=0;whiteSpace=wrap;html=1;fillColor=#d5e8d4;strokeColor=#82b366;" vertex="1" parent="WIyWlLk6GJQsqaUBKTNV-1">
          <mxGeometry x="100" y="630" width="880" height="580" as="geometry" />
        </mxCell>
        <mxCell id="MlD3XML23Wwkm-uaM5Pc-1" style="edgeStyle=orthogonalEdgeStyle;rounded=0;orthogonalLoop=1;jettySize=auto;html=1;exitX=1;exitY=0.5;exitDx=0;exitDy=0;entryX=0;entryY=0.5;entryDx=0;entryDy=0;" edge="1" parent="WIyWlLk6GJQsqaUBKTNV-1" source="MlD3XML23Wwkm-uaM5Pc-4" target="MlD3XML23Wwkm-uaM5Pc-10">
          <mxGeometry relative="1" as="geometry" />
        </mxCell>
        <mxCell id="MlD3XML23Wwkm-uaM5Pc-2" style="edgeStyle=orthogonalEdgeStyle;rounded=0;orthogonalLoop=1;jettySize=auto;html=1;exitX=0.5;exitY=1;exitDx=0;exitDy=0;entryX=0;entryY=0.5;entryDx=0;entryDy=0;" edge="1" parent="WIyWlLk6GJQsqaUBKTNV-1" source="MlD3XML23Wwkm-uaM5Pc-4" target="MlD3XML23Wwkm-uaM5Pc-12">
          <mxGeometry relative="1" as="geometry" />
        </mxCell>
        <mxCell id="MlD3XML23Wwkm-uaM5Pc-3" style="edgeStyle=orthogonalEdgeStyle;rounded=0;orthogonalLoop=1;jettySize=auto;html=1;exitX=0.5;exitY=0;exitDx=0;exitDy=0;entryX=0;entryY=0.5;entryDx=0;entryDy=0;" edge="1" parent="WIyWlLk6GJQsqaUBKTNV-1" source="MlD3XML23Wwkm-uaM5Pc-4" target="MlD3XML23Wwkm-uaM5Pc-8">
          <mxGeometry relative="1" as="geometry" />
        </mxCell>
        <mxCell id="MlD3XML23Wwkm-uaM5Pc-4" value="&lt;span style=&quot;font-size: 12px;&quot;&gt;待EDER审核&lt;/span&gt;" style="rounded=0;whiteSpace=wrap;html=1;" vertex="1" parent="WIyWlLk6GJQsqaUBKTNV-1">
          <mxGeometry x="460" y="860" width="120" height="60" as="geometry" />
        </mxCell>
        <mxCell id="MlD3XML23Wwkm-uaM5Pc-5" style="edgeStyle=orthogonalEdgeStyle;rounded=0;orthogonalLoop=1;jettySize=auto;html=1;exitX=1;exitY=0.5;exitDx=0;exitDy=0;entryX=0;entryY=0.5;entryDx=0;entryDy=0;" edge="1" parent="WIyWlLk6GJQsqaUBKTNV-1" source="MlD3XML23Wwkm-uaM5Pc-7" target="MlD3XML23Wwkm-uaM5Pc-4">
          <mxGeometry relative="1" as="geometry" />
        </mxCell>
        <mxCell id="MlD3XML23Wwkm-uaM5Pc-6" style="edgeStyle=orthogonalEdgeStyle;rounded=0;orthogonalLoop=1;jettySize=auto;html=1;exitX=0.5;exitY=0;exitDx=0;exitDy=0;dashed=1;curved=1;" edge="1" parent="WIyWlLk6GJQsqaUBKTNV-1">
          <mxGeometry relative="1" as="geometry">
            <mxPoint x="270" y="860" as="sourcePoint" />
            <mxPoint x="300" y="810" as="targetPoint" />
            <Array as="points">
              <mxPoint x="300" y="860" />
            </Array>
          </mxGeometry>
        </mxCell>
        <mxCell id="MlD3XML23Wwkm-uaM5Pc-7" value="&lt;span style=&quot;font-size: 12px;&quot;&gt;待提交&lt;/span&gt;" style="rounded=0;whiteSpace=wrap;html=1;" vertex="1" parent="WIyWlLk6GJQsqaUBKTNV-1">
          <mxGeometry x="170" y="860" width="120" height="60" as="geometry" />
        </mxCell>
        <mxCell id="MlD3XML23Wwkm-uaM5Pc-8" value="&lt;span style=&quot;font-size: 12px;&quot;&gt;全部通过&lt;/span&gt;" style="rounded=0;whiteSpace=wrap;html=1;" vertex="1" parent="WIyWlLk6GJQsqaUBKTNV-1">
          <mxGeometry x="770" y="680" width="120" height="60" as="geometry" />
        </mxCell>
        <mxCell id="MlD3XML23Wwkm-uaM5Pc-9" style="edgeStyle=orthogonalEdgeStyle;rounded=0;orthogonalLoop=1;jettySize=auto;html=1;exitX=1;exitY=0.5;exitDx=0;exitDy=0;entryX=0.5;entryY=1;entryDx=0;entryDy=0;dashed=1;curved=1;" edge="1" parent="WIyWlLk6GJQsqaUBKTNV-1" source="MlD3XML23Wwkm-uaM5Pc-10" target="MlD3XML23Wwkm-uaM5Pc-7">
          <mxGeometry relative="1" as="geometry">
            <Array as="points">
              <mxPoint x="950" y="890" />
              <mxPoint x="950" y="1190" />
              <mxPoint x="230" y="1190" />
            </Array>
          </mxGeometry>
        </mxCell>
        <mxCell id="MlD3XML23Wwkm-uaM5Pc-10" value="&lt;span style=&quot;font-size: 12px;&quot;&gt;部分通过&lt;/span&gt;" style="rounded=0;whiteSpace=wrap;html=1;" vertex="1" parent="WIyWlLk6GJQsqaUBKTNV-1">
          <mxGeometry x="770" y="860" width="120" height="60" as="geometry" />
        </mxCell>
        <mxCell id="MlD3XML23Wwkm-uaM5Pc-11" style="edgeStyle=orthogonalEdgeStyle;rounded=0;orthogonalLoop=1;jettySize=auto;html=1;exitX=0.5;exitY=1;exitDx=0;exitDy=0;dashed=1;curved=1;" edge="1" parent="WIyWlLk6GJQsqaUBKTNV-1" source="MlD3XML23Wwkm-uaM5Pc-12">
          <mxGeometry relative="1" as="geometry">
            <mxPoint x="833" y="1090" as="sourcePoint" />
            <mxPoint x="230" y="920" as="targetPoint" />
            <Array as="points">
              <mxPoint x="830" y="1150" />
              <mxPoint x="230" y="1150" />
            </Array>
          </mxGeometry>
        </mxCell>
        <mxCell id="MlD3XML23Wwkm-uaM5Pc-12" value="&lt;span style=&quot;font-size: 12px;&quot;&gt;全部退回&lt;/span&gt;" style="rounded=0;whiteSpace=wrap;html=1;" vertex="1" parent="WIyWlLk6GJQsqaUBKTNV-1">
          <mxGeometry x="770" y="1040" width="120" height="60" as="geometry" />
        </mxCell>
        <mxCell id="MlD3XML23Wwkm-uaM5Pc-13" style="edgeStyle=orthogonalEdgeStyle;rounded=0;orthogonalLoop=1;jettySize=auto;html=1;exitX=1;exitY=0.5;exitDx=0;exitDy=0;" edge="1" parent="WIyWlLk6GJQsqaUBKTNV-1" source="MlD3XML23Wwkm-uaM5Pc-14" target="MlD3XML23Wwkm-uaM5Pc-7">
          <mxGeometry relative="1" as="geometry" />
        </mxCell>
        <mxCell id="MlD3XML23Wwkm-uaM5Pc-14" value="&lt;span style=&quot;font-size: 12px;&quot;&gt;start&lt;/span&gt;" style="rounded=0;whiteSpace=wrap;html=1;" vertex="1" parent="WIyWlLk6GJQsqaUBKTNV-1">
          <mxGeometry x="-100" y="860" width="120" height="60" as="geometry" />
        </mxCell>
        <mxCell id="MlD3XML23Wwkm-uaM5Pc-15" value="新增" style="text;html=1;align=center;verticalAlign=middle;resizable=0;points=[];autosize=1;strokeColor=none;fillColor=none;" vertex="1" parent="WIyWlLk6GJQsqaUBKTNV-1">
          <mxGeometry x="50" y="860" width="50" height="30" as="geometry" />
        </mxCell>
        <mxCell id="MlD3XML23Wwkm-uaM5Pc-16" value="提交" style="text;html=1;align=center;verticalAlign=middle;resizable=0;points=[];autosize=1;strokeColor=none;fillColor=none;" vertex="1" parent="WIyWlLk6GJQsqaUBKTNV-1">
          <mxGeometry x="350" y="860" width="50" height="30" as="geometry" />
        </mxCell>
        <mxCell id="MlD3XML23Wwkm-uaM5Pc-17" value="审核.全部通过" style="text;html=1;align=center;verticalAlign=middle;resizable=0;points=[];autosize=1;strokeColor=none;fillColor=none;" vertex="1" parent="WIyWlLk6GJQsqaUBKTNV-1">
          <mxGeometry x="600" y="680" width="100" height="30" as="geometry" />
        </mxCell>
        <mxCell id="MlD3XML23Wwkm-uaM5Pc-18" value="审核.部分通过" style="text;whiteSpace=wrap;" vertex="1" parent="WIyWlLk6GJQsqaUBKTNV-1">
          <mxGeometry x="610" y="860" width="110" height="40" as="geometry" />
        </mxCell>
        <mxCell id="MlD3XML23Wwkm-uaM5Pc-19" value="审核.全部退回" style="text;html=1;align=center;verticalAlign=middle;resizable=0;points=[];autosize=1;strokeColor=none;fillColor=none;" vertex="1" parent="WIyWlLk6GJQsqaUBKTNV-1">
          <mxGeometry x="600" y="1040" width="100" height="30" as="geometry" />
        </mxCell>
        <mxCell id="MlD3XML23Wwkm-uaM5Pc-20" value="全部退回" style="text;html=1;align=center;verticalAlign=middle;resizable=0;points=[];autosize=1;strokeColor=none;fillColor=none;" vertex="1" parent="WIyWlLk6GJQsqaUBKTNV-1">
          <mxGeometry x="560" y="1130" width="70" height="30" as="geometry" />
        </mxCell>
        <mxCell id="MlD3XML23Wwkm-uaM5Pc-21" value="部分退回" style="text;html=1;align=center;verticalAlign=middle;resizable=0;points=[];autosize=1;strokeColor=none;fillColor=none;" vertex="1" parent="WIyWlLk6GJQsqaUBKTNV-1">
          <mxGeometry x="600" y="1180" width="70" height="30" as="geometry" />
        </mxCell>
        <mxCell id="MlD3XML23Wwkm-uaM5Pc-22" value="不回收零件申请单状态迁移" style="text;html=1;align=center;verticalAlign=middle;resizable=0;points=[];autosize=1;strokeColor=none;fillColor=none;fontSize=17;" vertex="1" parent="WIyWlLk6GJQsqaUBKTNV-1">
          <mxGeometry x="90" y="638" width="230" height="30" as="geometry" />
        </mxCell>
        <mxCell id="MlD3XML23Wwkm-uaM5Pc-23" value="已经存在不回收零件申请单中的，不可再次提交" style="shape=note;whiteSpace=wrap;html=1;backgroundOutline=1;darkOpacity=0.05;align=left;size=13;fillColor=#f8cecc;strokeColor=#b85450;" vertex="1" parent="WIyWlLk6GJQsqaUBKTNV-1">
          <mxGeometry x="305" y="900" width="125" height="70" as="geometry" />
        </mxCell>
        <mxCell id="MlD3XML23Wwkm-uaM5Pc-24" value="可删除申请单中退回的明细" style="text;html=1;align=center;verticalAlign=middle;resizable=0;points=[];autosize=1;strokeColor=none;fillColor=none;" vertex="1" parent="WIyWlLk6GJQsqaUBKTNV-1">
          <mxGeometry x="155" y="780" width="170" height="30" as="geometry" />
        </mxCell>
        <mxCell id="MlD3XML23Wwkm-uaM5Pc-25" value="" style="endArrow=classic;html=1;rounded=0;exitX=0.354;exitY=0.992;exitDx=0;exitDy=0;exitPerimeter=0;entryX=0.25;entryY=0;entryDx=0;entryDy=0;dashed=1;edgeStyle=orthogonalEdgeStyle;elbow=vertical;curved=1;" edge="1" parent="WIyWlLk6GJQsqaUBKTNV-1">
          <mxGeometry width="50" height="50" relative="1" as="geometry">
            <mxPoint x="199.77999999999994" y="809.76" as="sourcePoint" />
            <mxPoint x="180.22" y="860" as="targetPoint" />
            <Array as="points">
              <mxPoint x="180.22" y="810" />
            </Array>
          </mxGeometry>
        </mxCell>
        <mxCell id="MlD3XML23Wwkm-uaM5Pc-26" value="不回收零件申请单为基础配置项，不参与其他聚合根的业务逻辑。仅为零件回收主单提供导出时的筛选条件" style="shape=note;whiteSpace=wrap;html=1;backgroundOutline=1;darkOpacity=0.05;size=6;fillColor=#f8cecc;strokeColor=#b85450;" vertex="1" parent="WIyWlLk6GJQsqaUBKTNV-1">
          <mxGeometry x="1020" y="730" width="160" height="100" as="geometry" />
        </mxCell>
      </root>
    </mxGraphModel>
  </diagram>
</mxfile>
